<svg width="400" height="481" viewBox="0 0 400 481" fill="none" xmlns="http://www.w3.org/2000/svg">
<path d="M184.028 197.84L201.182 202.436L198.22 213.492L181.066 208.895L184.028 197.84Z" fill="url(#paint0_linear_4413_61529)"/>
<path d="M184.028 197.84L184.222 197.116C183.822 197.008 183.411 197.246 183.303 197.646L184.028 197.84ZM201.182 202.436L201.907 202.631C201.958 202.438 201.931 202.234 201.832 202.061C201.732 201.889 201.568 201.764 201.376 201.712L201.182 202.436ZM198.22 213.492L198.026 214.216C198.426 214.323 198.837 214.086 198.944 213.686L198.22 213.492ZM181.066 208.895L180.341 208.701C180.29 208.893 180.317 209.098 180.416 209.27C180.515 209.442 180.679 209.568 180.871 209.62L181.066 208.895ZM183.834 198.564L200.988 203.161L201.376 201.712L184.222 197.116L183.834 198.564ZM200.458 202.242L197.496 213.298L198.944 213.686L201.907 202.631L200.458 202.242ZM198.414 212.767L181.26 208.171L180.871 209.62L198.026 214.216L198.414 212.767ZM181.79 209.089L184.752 198.034L183.303 197.646L180.341 208.701L181.79 209.089Z" fill="white"/>
<path d="M226.133 36.0265C227.475 35.6667 228.908 36.0506 229.89 37.0333L290.458 97.6008C291.441 98.5836 291.825 100.016 291.465 101.359L269.296 184.095C268.936 185.438 267.887 186.486 266.545 186.846L183.808 209.015C182.466 209.375 181.033 208.991 180.05 208.008L119.483 147.441C118.5 146.458 118.116 145.026 118.476 143.683L140.645 60.9465C141.005 59.604 142.054 58.5554 143.396 58.1957L226.133 36.0265Z" fill="black" stroke="white" stroke-width="1.5" stroke-linejoin="round"/>
<path d="M193.597 164.819C214.082 170.267 228.582 162.137 232.613 146.978C241.389 113.978 194.588 115.64 198.433 101.18C199.581 96.8657 204.173 94.5912 211.39 96.5103C218.161 98.3111 221.384 102.569 221.002 107.478C220.925 108.461 221.481 109.432 222.434 109.686L237.284 113.635C238.28 113.9 239.301 113.281 239.473 112.265C242.257 95.8197 232.146 84.4258 215.762 80.0686C197.023 75.0851 183.548 83.1129 179.919 96.756C170.988 130.339 217.068 128.111 213.037 143.27C211.672 148.4 206.358 150.108 198.676 148.065C190.18 145.806 186.231 140.494 186.635 134.639C186.701 133.679 186.143 132.746 185.213 132.499L171.036 128.729C170.073 128.473 169.079 129.042 168.866 130.015C165.363 146.031 174.503 159.741 193.597 164.819Z" stroke="#BCFF2F" stroke-width="2"/>
<path d="M263.205 459.49C240.026 452.952 236.726 393.336 255.833 326.336C274.94 259.335 309.219 210.321 332.397 216.859C355.576 223.398 358.876 283.013 339.769 350.014C320.662 417.014 286.383 466.028 263.205 459.49Z" stroke="white" stroke-width="1.5" stroke-miterlimit="10"/>
<path d="M250.218 452.19C235.192 447.951 238.238 391.118 257.022 325.25C275.806 259.382 303.214 209.422 318.241 213.661C333.268 217.9 330.222 274.732 311.438 340.6C292.654 406.468 265.245 456.429 250.218 452.19Z" stroke="white" stroke-width="2"/>
<path d="M256.389 451.762C252.237 453.883 248.293 454.533 244.716 453.524C223.976 447.674 222.742 388.322 241.952 320.96C261.162 253.597 293.589 203.754 314.28 209.591C317.857 210.6 320.871 213.213 323.285 217.186C303.42 227.344 278.516 271.091 262.627 326.805C246.739 382.519 244.845 432.744 256.389 451.762Z" fill="black" stroke="white" stroke-width="1.59099" stroke-miterlimit="10"/>
<path d="M157.026 242.643C163.242 236.488 155.948 231.478 152.519 231.157C149.09 230.835 135.554 234.951 135.554 234.951C142.462 238.158 149.649 240.732 157.026 242.643Z" fill="#121212"/>
<path d="M202.417 252.375C196.716 251.294 170.194 246.225 157.027 242.642C149.65 240.731 142.463 238.157 135.555 234.951C131.638 233.104 127.875 230.949 124.302 228.508C114.406 221.762 105.263 211.723 97.6218 206.866C83.9373 198.182 75.3521 201.414 72.6524 204.29C69.9527 207.166 71.233 212.562 75.1077 216.937C79.785 222.21 96.5727 243.776 105.36 250.512C105.379 250.506 105.4 250.505 105.42 250.511C105.439 250.516 105.457 250.528 105.47 250.543L105.36 250.512C105.151 250.454 104.344 250.872 101.618 254.07C97.884 258.486 98.2777 257.385 97.3421 266.188C96.9992 269.387 101.377 273.574 107.092 277.624L106.762 278.085C106.762 278.085 105.027 286.953 107.754 291.36C109.145 293.584 116.07 297.659 121.958 300.915L121.92 301.049L122.12 307.867C122.138 309.372 122.52 310.849 123.234 312.175C123.948 313.501 124.973 314.635 126.222 315.482C129.733 317.791 135.634 321.511 144.347 326.184C159.609 334.443 218.991 360.09 223.715 364.085C228.439 368.08 261.016 446.217 261.016 446.217C265.57 441.663 273.111 432.584 284.709 410.814C293.254 394.773 299.658 372.757 303.549 362.177C300.208 356.068 275.354 324.101 271.205 291.681C267.942 266.457 241.974 244.687 236.762 239.896C224.68 228.751 217.834 226.16 205.974 213.26C192.301 198.41 184.819 191.134 180.581 195.553C166.028 210.755 180 226.321 189.289 237.746C192.66 241.939 197.876 247.549 202.417 252.375Z" fill="#121212"/>
<path d="M130.815 305.592C130.815 305.592 126.708 303.564 121.942 300.967C116.043 297.748 109.129 293.636 107.738 291.412C105.023 287.008 106.746 278.136 106.746 278.136" stroke="white" stroke-width="1.5" stroke-miterlimit="10" stroke-linecap="round" stroke-linejoin="round"/>
<path d="M131.186 291.434C122.824 287.437 114.766 282.838 107.076 277.674V277.674C101.362 273.624 96.984 269.437 97.3269 266.239C98.2625 257.435 97.8827 258.488 101.603 254.12C104.325 250.934 105.126 250.541 105.344 250.563C105.364 250.556 105.385 250.556 105.404 250.561C105.424 250.567 105.442 250.578 105.455 250.594" stroke="white" stroke-width="1.5" stroke-miterlimit="10" stroke-linecap="round" stroke-linejoin="round"/>
<path d="M139.448 268.092C139.448 268.092 112.209 255.835 105.458 250.595L105.347 250.564C96.681 243.823 79.7725 222.262 75.0952 216.989C71.2205 212.614 69.9368 207.23 72.64 204.342C75.3431 201.454 83.9249 198.234 97.6094 206.918C105.305 211.725 114.4 221.79 124.289 228.56C127.862 231.001 131.625 233.156 135.542 235.002C142.45 238.209 149.637 240.783 157.015 242.694C170.182 246.277 196.703 251.346 202.404 252.427L201.681 252.29" stroke="white" stroke-width="1.5" stroke-miterlimit="10" stroke-linecap="round" stroke-linejoin="round"/>
<path d="M261.763 447.178C261.763 447.178 228.326 368.103 223.602 364.108C218.877 360.113 159.503 334.441 144.234 326.207C135.582 321.552 129.674 317.855 126.108 315.505C124.86 314.658 123.835 313.524 123.121 312.198C122.407 310.872 122.024 309.395 122.006 307.89L121.806 301.072" stroke="white" stroke-width="1.5" stroke-miterlimit="10" stroke-linecap="round" stroke-linejoin="round"/>
<path d="M212.673 262.915C212.673 262.915 207.936 258.179 202.44 252.385C197.851 247.545 192.684 241.948 189.26 237.754C179.971 226.329 165.999 210.763 180.553 195.56C184.81 191.12 192.291 198.397 205.945 213.267C217.842 226.179 224.688 228.769 236.734 239.903C241.982 244.705 267.913 266.465 271.176 291.689C275.35 324.116 300.655 356.243 303.971 362.345L304.079 362.521" stroke="white" stroke-width="1.5" stroke-miterlimit="10" stroke-linecap="round" stroke-linejoin="round"/>
<path d="M135.553 234.952C135.553 234.952 149.082 230.861 152.518 231.158C155.954 231.455 163.23 236.526 157.025 242.643" stroke="white" stroke-width="1.5" stroke-miterlimit="10" stroke-linecap="round" stroke-linejoin="round"/>
<defs>
<linearGradient id="paint0_linear_4413_61529" x1="193.754" y1="195.85" x2="188.494" y2="215.482" gradientUnits="userSpaceOnUse">
<stop stop-color="#FFB801"/>
<stop offset="1" stop-color="#F654E5"/>
</linearGradient>
</defs>
</svg>
